<mxfile host="65bd71144e">
    <diagram id="DLjmupUZ2m6u4R_Xzwk4" name="Page-1">
        <mxGraphModel dx="1189" dy="603" grid="0" gridSize="10" guides="1" tooltips="1" connect="1" arrows="1" fold="1" page="1" pageScale="1" pageWidth="850" pageHeight="1100" background="#ffffff" math="0" shadow="0">
            <root>
                <mxCell id="0"/>
                <mxCell id="1" parent="0"/>
                <mxCell id="22" value="Ajustes" style="shape=umlFrame;whiteSpace=wrap;html=1;strokeColor=#000000;" parent="1" vertex="1">
                    <mxGeometry x="54" y="67" width="755" height="698" as="geometry"/>
                </mxCell>
                <mxCell id="61" style="edgeStyle=none;html=1;strokeColor=#000000;" parent="1" source="23" target="33" edge="1">
                    <mxGeometry relative="1" as="geometry"/>
                </mxCell>
                <mxCell id="62" style="edgeStyle=none;html=1;strokeColor=#000000;" parent="1" source="23" target="52" edge="1">
                    <mxGeometry relative="1" as="geometry"/>
                </mxCell>
                <mxCell id="63" style="edgeStyle=none;html=1;entryX=0;entryY=0.5;entryDx=0;entryDy=0;strokeColor=#000000;" parent="1" source="23" target="36" edge="1">
                    <mxGeometry relative="1" as="geometry"/>
                </mxCell>
                <mxCell id="64" style="edgeStyle=none;html=1;entryX=0;entryY=0.5;entryDx=0;entryDy=0;strokeColor=#000000;" parent="1" source="23" target="34" edge="1">
                    <mxGeometry relative="1" as="geometry"/>
                </mxCell>
                <mxCell id="66" style="edgeStyle=none;html=1;entryX=0;entryY=0.5;entryDx=0;entryDy=0;" edge="1" parent="1" source="23" target="65">
                    <mxGeometry relative="1" as="geometry"/>
                </mxCell>
                <mxCell id="67" style="edgeStyle=none;html=1;entryX=0;entryY=0.5;entryDx=0;entryDy=0;strokeColor=#000000;" edge="1" parent="1" source="23" target="65">
                    <mxGeometry relative="1" as="geometry"/>
                </mxCell>
                <mxCell id="23" value="Actor" style="shape=umlActor;verticalLabelPosition=bottom;verticalAlign=top;html=1;strokeColor=#0A0A0A;" parent="1" vertex="1">
                    <mxGeometry x="200" y="224" width="30" height="60" as="geometry"/>
                </mxCell>
                <mxCell id="24" value="&lt;font size=&quot;1&quot; color=&quot;#000000&quot;&gt;&lt;b style=&quot;font-size: 14px;&quot;&gt;Usuário&lt;/b&gt;&lt;/font&gt;" style="text;html=1;align=center;verticalAlign=middle;whiteSpace=wrap;rounded=0;" parent="1" vertex="1">
                    <mxGeometry x="185" y="296" width="60" height="30" as="geometry"/>
                </mxCell>
                <mxCell id="31" value="" style="edgeStyle=none;html=1;strokeColor=#000000;fontSize=14;fontColor=#000000;" parent="1" source="25" target="24" edge="1">
                    <mxGeometry relative="1" as="geometry"/>
                </mxCell>
                <mxCell id="25" value="Actor" style="shape=umlActor;verticalLabelPosition=bottom;verticalAlign=top;html=1;strokeColor=#0A0A0A;" parent="1" vertex="1">
                    <mxGeometry x="200" y="391" width="30" height="60" as="geometry"/>
                </mxCell>
                <mxCell id="26" value="&lt;font size=&quot;1&quot; color=&quot;#000000&quot;&gt;&lt;b style=&quot;font-size: 14px;&quot;&gt;Empreendedor&lt;/b&gt;&lt;/font&gt;" style="text;html=1;align=center;verticalAlign=middle;whiteSpace=wrap;rounded=0;" parent="1" vertex="1">
                    <mxGeometry x="157" y="461" width="116" height="30" as="geometry"/>
                </mxCell>
                <mxCell id="29" value="" style="rounded=0;whiteSpace=wrap;html=1;strokeColor=#0A0A0A;fontSize=14;fontColor=#000000;fillColor=none;" parent="1" vertex="1">
                    <mxGeometry x="429" y="123" width="306" height="583" as="geometry"/>
                </mxCell>
                <mxCell id="32" value="&lt;span style=&quot;font-size: 17px;&quot;&gt;Ajustes&lt;/span&gt;" style="text;html=1;strokeColor=none;fillColor=none;align=center;verticalAlign=middle;whiteSpace=wrap;rounded=0;fontSize=14;fontColor=#000000;" parent="1" vertex="1">
                    <mxGeometry x="552" y="144" width="60" height="30" as="geometry"/>
                </mxCell>
                <mxCell id="33" value="Fazer upload da logo da empresa" style="ellipse;whiteSpace=wrap;html=1;strokeColor=#0A0A0A;fontSize=17;fontColor=#000000;fillColor=none;" parent="1" vertex="1">
                    <mxGeometry x="508" y="199" width="161" height="70" as="geometry"/>
                </mxCell>
                <mxCell id="34" value="Ativar chat online" style="ellipse;whiteSpace=wrap;html=1;strokeColor=#0A0A0A;fontSize=17;fontColor=#000000;fillColor=none;" parent="1" vertex="1">
                    <mxGeometry x="516" y="446" width="161" height="70" as="geometry"/>
                </mxCell>
                <mxCell id="36" value="Ativar orçamento online" style="ellipse;whiteSpace=wrap;html=1;strokeColor=#0A0A0A;fontSize=17;fontColor=#000000;fillColor=none;" parent="1" vertex="1">
                    <mxGeometry x="512" y="364" width="161" height="70" as="geometry"/>
                </mxCell>
                <mxCell id="52" value="Definir quantidade de serviços em destaque" style="ellipse;whiteSpace=wrap;html=1;strokeColor=#0A0A0A;fontSize=17;fontColor=#000000;fillColor=none;" parent="1" vertex="1">
                    <mxGeometry x="512" y="282" width="161" height="70" as="geometry"/>
                </mxCell>
                <mxCell id="65" value="Ativar notificações por e-mail" style="ellipse;whiteSpace=wrap;html=1;strokeColor=#0A0A0A;fontSize=17;fontColor=#000000;fillColor=none;" vertex="1" parent="1">
                    <mxGeometry x="516" y="528" width="161" height="70" as="geometry"/>
                </mxCell>
            </root>
        </mxGraphModel>
    </diagram>
</mxfile>